<svg id="visual" viewBox="0 0 900 600" width="900" height="600" xmlns="http://www.w3.org/2000/svg" xmlns:xlink="http://www.w3.org/1999/xlink" version="1.1"><g transform="translate(387.91062577727047 303.78691731278343)"><path d="M208.3 -240.6C263.6 -201.8 297.7 -130.2 313.6 -53.3C329.5 23.5 327.1 105.5 287.3 157.7C247.4 209.9 170 232.3 97.6 251.5C25.1 270.6 -42.5 286.6 -85 259.8C-127.5 233 -145 163.4 -160.1 107C-175.2 50.7 -188.1 7.6 -194.9 -48.3C-201.6 -104.3 -202.4 -173.2 -168.9 -215.8C-135.4 -258.4 -67.7 -274.7 4.4 -279.9C76.5 -285.2 153 -279.3 208.3 -240.6" fill="#FF6700"></path></g></svg>